<?xml version="1.0" encoding="iso-8859-1"?>
<!-- Generator: Adobe Illustrator 19.0.0, SVG Export Plug-In . SVG Version: 6.00 Build 0)  -->
<svg version="1.1" id="Capa_1" xmlns="http://www.w3.org/2000/svg" xmlns:xlink="http://www.w3.org/1999/xlink" x="0px" y="0px"
	 viewBox="0 0 512.001 512.001" style="enable-background:new 0 0 512.001 512.001;" xml:space="preserve">
<path style="fill:#F9F5F2;" d="M219.43,425.144h73.143c20.169-0.064,36.507-16.402,36.571-36.571v-45.714H182.859v45.714
	C182.923,408.75,199.261,425.089,219.43,425.144z"/>
<path style="fill:#24537E;" d="M487.864,428.069c-7.323-33.691-37.111-57.737-71.589-57.783h-87.131v18.286
	c-0.064,20.169-16.402,36.507-36.571,36.571H219.43c-20.169-0.064-36.507-16.402-36.571-36.571v-18.286H95.727
	c-34.478,0.046-64.265,24.091-71.589,57.783L9.144,498.286h493.714L487.864,428.069z"/>
<g>
	<path style="fill:#F9F5F2;" d="M123.521,195.384c-15.808,12.581-18.423,35.584-5.842,51.392
		c6.939,8.713,17.472,13.797,28.608,13.797v-73.143C138.022,187.448,130.004,190.254,123.521,195.384z"/>
	<path style="fill:#F9F5F2;" d="M402.287,224.001c0-20.197-16.375-36.571-36.571-36.571v73.143
		C385.912,260.572,402.287,244.197,402.287,224.001z"/>
</g>
<g>
	<path style="fill:#A05D35;" d="M182.859,86.858c-0.046,12.855,3.365,25.481,9.874,36.571c6.29,11.173,15.525,20.407,26.697,26.697
		c11.09,6.51,23.717,9.92,36.571,9.874h54.857c60.544,0.055,109.659-48.987,109.714-109.531c0-0.064,0-0.119,0-0.183V13.715H256.001
		C215.608,13.715,182.859,46.465,182.859,86.858z"/>
	<path style="fill:#A05D35;" d="M146.287,123.429h46.446c-6.51-11.09-9.92-23.717-9.874-36.571
		c-0.027-21.001,9.006-40.997,24.777-54.857h-33.92c-30.299,0-54.857,24.558-54.857,54.857v100.571
		c0.018,3.291,1.801,6.327,4.663,7.954c6.482-5.129,14.501-7.936,22.766-7.954V123.429z"/>
	<path style="fill:#A05D35;" d="M365.716,145.372v42.057h18.286c5.047,0,9.143-4.096,9.143-9.143v-54.857h-0.457
		C384.925,132.133,375.819,139.539,365.716,145.372z"/>
</g>
<path style="fill:#F9F5F2;" d="M310.859,160.001h-54.857c-12.855,0.046-25.481-3.365-36.571-9.874
	c-11.173-6.29-20.407-15.525-26.697-26.697h-46.446v182.857c0,20.197,16.375,36.571,36.571,36.571h146.286
	c20.197,0,36.571-16.375,36.571-36.571V145.372C349.048,155.009,330.113,160.056,310.859,160.001z"/>
<g>
	<path style="fill:#231F20;" d="M496.806,426.122c-8.384-37.797-41.81-64.768-80.53-64.978h-77.989v-10.057
		c21.266-4.37,36.544-23.086,36.571-44.8v-37.486c24.677-4.974,40.649-29.01,35.675-53.678c-1.865-9.243-6.546-17.682-13.403-24.155
		c3.31-3.392,5.157-7.945,5.157-12.681v-52.169c17.728-21.294,27.429-48.128,27.429-75.831V13.715c0-5.047-4.096-9.143-9.143-9.143
		H256.001c-18.77,0.037-36.965,6.491-51.566,18.286h-30.72c-35.328,0.037-63.963,28.672-64,64v100.571
		c0.055,2.469,0.603,4.901,1.637,7.15c-16.274,19.255-13.861,48.064,5.394,64.347c5.861,4.955,12.873,8.347,20.398,9.874v37.486
		c0.027,21.714,15.305,40.43,36.571,44.8v10.057H95.727c-38.729,0.21-72.165,27.2-80.53,65.015L0.203,496.376
		c-1.051,4.937,2.094,9.792,7.031,10.853c0.631,0.137,1.271,0.201,1.911,0.201h493.714c5.047,0,9.143-4.096,9.143-9.143
		c0-0.64-0.064-1.28-0.201-1.911L496.806,426.122z M192.001,352.001h128v36.571c0,15.15-12.279,27.429-27.429,27.429H219.43
		c-15.15,0-27.429-12.279-27.429-27.429V352.001z M381.88,145.537c0.695-0.512,1.435-0.96,2.121-1.499v34.249h-9.143V150.51
		c0.503-0.32,0.914-0.704,1.463-1.033C378.214,148.225,380.061,146.899,381.88,145.537z M374.859,249.866v-51.73
		c14.281,5.038,21.778,20.709,16.741,34.99C388.838,240.952,382.685,247.105,374.859,249.866z M411.43,22.858v27.429
		c0.027,24.741-9.088,48.622-25.6,67.045c-1.829,2.011-3.694,3.941-5.605,5.787l-0.21,0.183
		c-18.642,17.746-43.41,27.621-69.157,27.557h-54.857c-11.301,0.018-22.391-2.99-32.128-8.722
		c-9.746-5.504-17.801-13.586-23.269-23.351c-5.669-9.682-8.64-20.709-8.603-31.927c0-35.346,28.654-64,64-64H411.43z
		 M128.001,86.858c0.027-25.234,20.48-45.687,45.714-45.714h13.87c-0.311,0.457-0.521,0.969-0.823,1.435
		c-1.573,2.459-3.017,5.001-4.315,7.616c-0.329,0.667-0.713,1.307-1.024,1.984c-1.499,3.237-2.789,6.574-3.858,9.975
		c-0.256,0.805-0.439,1.627-0.667,2.441c-0.768,2.743-1.399,5.531-1.883,8.338c-0.174,1.006-0.347,2.002-0.485,3.017
		c-0.512,3.611-0.786,7.259-0.814,10.907c0.018,3.227,0.229,6.446,0.631,9.646c0.091,0.768,0.183,1.527,0.293,2.286
		c0.439,3.081,1.051,6.135,1.829,9.143c0.119,0.448,0.283,0.914,0.402,1.317c0.485,1.682,0.96,3.365,1.545,5.001h-32.128
		c-5.047,0-9.143,4.096-9.143,9.143v55.771c-0.613,0.119-1.17,0.411-1.774,0.558c-2.039,0.503-4.041,1.134-5.998,1.911
		c-0.448,0.183-0.914,0.247-1.371,0.439V86.858z M118.859,224.001c-0.037-8.338,3.758-16.229,10.295-21.413
		c1.225-0.96,2.533-1.829,3.895-2.578c0.53-0.293,1.088-0.485,1.627-0.741c0.823-0.384,1.627-0.795,2.469-1.097v51.694
		C126.2,245.98,118.877,235.621,118.859,224.001z M155.43,306.286V132.572h32.165c0.64,0.969,1.39,1.883,2.066,2.825
		c0.567,0.777,1.106,1.554,1.701,2.313c1.984,2.587,4.114,5.047,6.4,7.369c5.038,5.074,10.761,9.417,16.997,12.919
		c12.507,7.333,26.743,11.182,41.243,11.145h54.857c4.709-0.027,9.408-0.329,14.08-0.914c1.381-0.155,2.743-0.393,4.105-0.603
		c3.419-0.521,6.802-1.189,10.158-2.011c1.353-0.329,2.743-0.631,4.032-1.006c4.343-1.207,8.622-2.651,12.8-4.343
		c0.128-0.055,0.265-0.091,0.384-0.137l0.155-0.055v146.213c0,15.15-12.279,27.429-27.429,27.429H182.859
		C167.709,333.715,155.43,321.436,155.43,306.286z M419.174,489.144l-7.872-47.223l-18.03,3.017l7.369,44.206h-289.28l7.369-44.206
		l-18.03-3.017l-7.872,47.223H20.445l12.626-59.136c6.519-29.422,32.521-50.414,62.656-50.578h77.989v9.143
		c0.027,25.234,20.48,45.687,45.714,45.714h73.143c25.234-0.027,45.687-20.48,45.714-45.714v-9.143h77.989
		c30.126,0.165,56.128,21.147,62.656,50.551l12.626,59.163H419.174z"/>
	<circle style="fill:#231F20;" cx="310.859" cy="196.572" r="18.286"/>
	<circle style="fill:#231F20;" cx="201.144" cy="196.572" r="18.286"/>
	<rect x="292.573" y="461.715" style="fill:#231F20;" width="54.857" height="18.286"/>
	<rect x="365.716" y="461.715" style="fill:#231F20;" width="18.286" height="18.286"/>
</g>
<g>
</g>
<g>
</g>
<g>
</g>
<g>
</g>
<g>
</g>
<g>
</g>
<g>
</g>
<g>
</g>
<g>
</g>
<g>
</g>
<g>
</g>
<g>
</g>
<g>
</g>
<g>
</g>
<g>
</g>
</svg>
